<svg id="Layer_1" data-name="Layer 1" xmlns="http://www.w3.org/2000/svg" width="818" height="241.859"><defs><style>.cls-1{fill:#333}.cls-2{fill:#fff}.cls-3{fill:#00a8d6}.cls-5{fill:#ffa400}</style></defs><path class="cls-1" d="M466.263 198.298H353.347V36.048h112.916zm-110.916-2h108.916V38.048H355.347z"/><path class="cls-2" d="M462.788 79.692h5.039v5.756h-5.039zM462.788 99.721h5.039v5.756h-5.039zM462.788 119.203h5.039v5.756h-5.039zM462.788 139.179h5.039v5.756h-5.039zM462.788 158.661h5.039v5.756h-5.039zM351.52 99.721h5.039v5.756h-5.039zM351.52 119.203h5.039v5.756h-5.039zM351.52 139.179h5.039v5.756h-5.039z"/><path class="cls-1" d="M330.48 211.877h2.73l7.379 16.89h-3.114l-1.702-4.05h-7.93l-1.724 4.05h-3.018zm4.215 10.23l-2.898-6.707-2.875 6.707zM343.462 211.997h6.611c3.93 0 6.373 2.229 6.373 5.606v.048c0 3.761-3.018 5.725-6.708 5.725h-3.33v5.39h-2.946zm6.372 8.72c2.228 0 3.617-1.245 3.617-2.994v-.048c0-1.965-1.413-2.994-3.617-2.994h-3.426v6.037zM359.632 211.997h2.946v16.77h-2.946zM373.5 220.43v-.048a8.543 8.543 0 0 1 8.648-8.672 9.056 9.056 0 0 1 6.445 2.275l-1.868 2.229a6.569 6.569 0 0 0-4.697-1.797 5.672 5.672 0 0 0-5.437 5.917v.048c0 3.45 2.275 5.99 5.701 5.99a6.847 6.847 0 0 0 4.049-1.27v-3.14h-4.288V219.4h7.138v7.043a10.687 10.687 0 0 1-6.995 2.612 8.32 8.32 0 0 1-8.696-8.624zM398.966 211.877h2.73l7.38 16.89h-3.115l-1.701-4.05h-7.93l-1.725 4.05h-3.018zm4.216 10.23l-2.899-6.707-2.875 6.707zM413.912 214.729h-5.318v-2.732H422.2v2.732h-5.318v14.038h-2.97zM425.314 211.997h12.434v2.636h-9.487v4.36h8.409v2.635h-8.41v4.504h9.607v2.635h-12.553zM440.07 211.997h3.187l4 12.434 4.121-12.482h2.491l4.121 12.482 4-12.434h3.091l-5.821 16.89h-2.564l-4.12-12.051-4.12 12.05h-2.54zM471.884 211.877h2.73l7.38 16.89h-3.115l-1.701-4.05h-7.93l-1.725 4.05h-3.018zm4.216 10.23L473.2 215.4l-2.875 6.707zM487.166 222.154l-6.66-10.157h3.498l4.672 7.402 4.743-7.402h3.378l-6.66 10.086v6.684h-2.971z"/><path class="cls-2" transform="rotate(90 654.388 18.448)" d="M637.44-77.287h33.896v191.47H637.44z"/><path class="cls-3" d="M751.123 36.396h-193.47V.5h193.47zm-191.47-2h189.47V2.5h-189.47z"/><path class="cls-1" d="M588.39 12.933h2.034l3.308 5.141 3.309-5.141h2.035v10.873h-1.91v-7.798l-3.434 5.126h-.061l-3.402-5.095v7.767h-1.88zM601.985 12.933h1.91v10.873h-1.91zM606.32 18.4v-.03a5.503 5.503 0 0 1 5.608-5.624 5.667 5.667 0 0 1 4.256 1.693l-1.228 1.414a4.323 4.323 0 0 0-3.044-1.352 3.66 3.66 0 0 0-3.589 3.837v.031a3.664 3.664 0 0 0 3.59 3.853 4.248 4.248 0 0 0 3.121-1.399l1.227 1.242a5.61 5.61 0 0 1-4.411 1.927 5.469 5.469 0 0 1-5.53-5.592zM618.27 12.933h4.845a4.378 4.378 0 0 1 3.138 1.087 3.287 3.287 0 0 1 .901 2.345v.032a3.266 3.266 0 0 1-2.578 3.293l2.936 4.116h-2.269l-2.67-3.79h-2.393v3.79h-1.91zm4.706 5.39c1.367 0 2.237-.716 2.237-1.818v-.031c0-1.165-.839-1.802-2.253-1.802h-2.78v3.65zM629.02 18.4v-.03a5.686 5.686 0 0 1 11.372-.032v.031a5.686 5.686 0 0 1-11.371.031zm9.368 0v-.03a3.726 3.726 0 0 0-3.698-3.869 3.674 3.674 0 0 0-3.666 3.837v.031a3.713 3.713 0 0 0 3.698 3.853 3.661 3.661 0 0 0 3.666-3.822zM641.902 22.222l1.15-1.367a5.037 5.037 0 0 0 3.432 1.413c1.181 0 1.927-.559 1.927-1.367v-.03c0-.778-.435-1.197-2.454-1.663-2.315-.56-3.62-1.243-3.62-3.247v-.03c0-1.865 1.554-3.154 3.713-3.154a6.03 6.03 0 0 1 3.945 1.367l-1.025 1.445a4.936 4.936 0 0 0-2.951-1.12c-1.119 0-1.771.576-1.771 1.29v.031c0 .839.497 1.212 2.594 1.709 2.299.56 3.48 1.383 3.48 3.185v.03c0 2.035-1.6 3.247-3.884 3.247a6.698 6.698 0 0 1-4.536-1.74zM652.578 12.933h8.062v1.708h-6.152v2.827h5.452v1.709h-5.452v2.92h6.229v1.709h-8.139zM662.988 12.933h4.846a4.378 4.378 0 0 1 3.138 1.087 3.287 3.287 0 0 1 .901 2.345v.032a3.266 3.266 0 0 1-2.578 3.293l2.935 4.116h-2.268l-2.671-3.79h-2.393v3.79h-1.91zm4.706 5.39c1.368 0 2.238-.716 2.238-1.818v-.031c0-1.165-.84-1.802-2.253-1.802h-2.78v3.65zM672.98 12.933h2.112l3.278 8.356 3.262-8.356h2.065l-4.504 10.95H677.5zM685.674 12.933h1.91v10.873h-1.91zM690.009 18.4v-.03a5.503 5.503 0 0 1 5.608-5.624 5.668 5.668 0 0 1 4.256 1.693l-1.227 1.414a4.323 4.323 0 0 0-3.044-1.352 3.66 3.66 0 0 0-3.59 3.837v.031a3.664 3.664 0 0 0 3.59 3.853 4.248 4.248 0 0 0 3.122-1.399l1.226 1.242a5.61 5.61 0 0 1-4.41 1.927 5.469 5.469 0 0 1-5.531-5.592zM701.958 12.933h8.062v1.708h-6.152v2.827h5.452v1.709h-5.452v2.92h6.229v1.709h-8.139zM718.396 14.796l-1.957.544-.403-1.554 2.936-.931h1.32v10.95h-1.896z"/><g><path class="cls-2" transform="rotate(90 654.388 67.619)" d="M637.44-28.116h33.896v191.47H637.44z"/><path class="cls-3" d="M751.123 85.566h-193.47V49.67h193.47zm-191.47-2h189.47V51.67h-189.47z"/></g><g><path class="cls-1" d="M586.704 62.103h2.034l3.309 5.142 3.308-5.142h2.036v10.873h-1.91v-7.798l-3.434 5.126h-.062l-3.402-5.094v7.766h-1.879zM600.3 62.103h1.91v10.873h-1.91zM604.634 67.57v-.03a5.503 5.503 0 0 1 5.608-5.623 5.668 5.668 0 0 1 4.256 1.693l-1.227 1.413a4.323 4.323 0 0 0-3.044-1.352 3.66 3.66 0 0 0-3.59 3.837v.032a3.664 3.664 0 0 0 3.59 3.852 4.248 4.248 0 0 0 3.122-1.398l1.226 1.242a5.61 5.61 0 0 1-4.41 1.927 5.469 5.469 0 0 1-5.531-5.592zM616.584 62.103h4.846a4.378 4.378 0 0 1 3.137 1.087 3.287 3.287 0 0 1 .902 2.346v.031a3.266 3.266 0 0 1-2.578 3.293l2.935 4.116h-2.268l-2.671-3.79h-2.393v3.79h-1.91zm4.706 5.39c1.367 0 2.237-.715 2.237-1.818v-.03c0-1.166-.839-1.803-2.253-1.803h-2.78v3.65zM627.335 67.57v-.03a5.686 5.686 0 0 1 11.371-.032v.032a5.686 5.686 0 0 1-11.371.03zm9.367 0v-.03a3.726 3.726 0 0 0-3.697-3.869 3.674 3.674 0 0 0-3.666 3.837v.032a3.713 3.713 0 0 0 3.697 3.852 3.661 3.661 0 0 0 3.666-3.821zM640.217 71.392l1.15-1.367a5.037 5.037 0 0 0 3.432 1.413c1.18 0 1.927-.559 1.927-1.366v-.031c0-.778-.436-1.197-2.455-1.663-2.315-.56-3.62-1.243-3.62-3.247v-.03c0-1.864 1.554-3.153 3.713-3.153a6.03 6.03 0 0 1 3.946 1.366l-1.026 1.445a4.936 4.936 0 0 0-2.951-1.119c-1.118 0-1.77.575-1.77 1.29v.03c0 .84.497 1.212 2.593 1.71 2.3.559 3.48 1.382 3.48 3.184v.031c0 2.034-1.6 3.246-3.883 3.246a6.698 6.698 0 0 1-4.536-1.739zM650.893 62.103h8.061v1.708h-6.151v2.827h5.452v1.71h-5.452v2.92h6.228v1.708h-8.138zM661.303 62.103h4.845a4.378 4.378 0 0 1 3.138 1.087 3.287 3.287 0 0 1 .902 2.346v.031a3.266 3.266 0 0 1-2.579 3.293l2.936 4.116h-2.269l-2.67-3.79h-2.393v3.79h-1.91zm4.706 5.39c1.367 0 2.237-.715 2.237-1.818v-.03c0-1.166-.839-1.803-2.253-1.803h-2.78v3.65zM671.294 62.103h2.112l3.279 8.356 3.261-8.356h2.066l-4.504 10.951h-1.694zM683.988 62.103h1.91v10.873h-1.91zM688.323 67.57v-.03a5.503 5.503 0 0 1 5.609-5.623 5.668 5.668 0 0 1 4.255 1.693l-1.227 1.413a4.323 4.323 0 0 0-3.044-1.352 3.66 3.66 0 0 0-3.589 3.837v.032a3.664 3.664 0 0 0 3.59 3.852 4.248 4.248 0 0 0 3.121-1.398l1.227 1.242a5.61 5.61 0 0 1-4.411 1.927 5.469 5.469 0 0 1-5.53-5.592zM700.272 62.103h8.062v1.708h-6.151v2.827h5.452v1.71h-5.452v2.92h6.228v1.708h-8.139zM714.707 71.47l3.744-3.185c1.491-1.274 2.035-1.957 2.035-2.936a1.63 1.63 0 0 0-1.756-1.693c-.994 0-1.677.544-2.5 1.63l-1.368-1.07a4.475 4.475 0 0 1 4.008-2.268c2.128 0 3.589 1.304 3.589 3.246v.031c0 1.708-.901 2.64-2.827 4.21l-2.238 1.863h5.173v1.678h-7.86z"/></g><g><path class="cls-2" transform="rotate(90 654.388 120.887)" d="M637.44 25.152h33.896v191.47H637.44z"/><path class="cls-3" d="M751.123 138.834h-193.47V102.94h193.47zm-191.47-2h189.47V104.94h-189.47z"/></g><g><path class="cls-1" d="M586.665 115.372h2.034l3.309 5.141 3.308-5.141h2.036v10.873h-1.91v-7.798l-3.434 5.126h-.062l-3.402-5.095v7.767h-1.879zM600.26 115.372h1.91v10.873h-1.91zM604.595 120.84v-.032a5.503 5.503 0 0 1 5.608-5.623 5.667 5.667 0 0 1 4.256 1.693l-1.228 1.414a4.324 4.324 0 0 0-3.043-1.352 3.66 3.66 0 0 0-3.59 3.837v.031a3.664 3.664 0 0 0 3.59 3.853 4.248 4.248 0 0 0 3.122-1.399l1.226 1.242a5.61 5.61 0 0 1-4.411 1.927 5.469 5.469 0 0 1-5.53-5.592zM616.545 115.372h4.846a4.378 4.378 0 0 1 3.137 1.087 3.287 3.287 0 0 1 .902 2.345v.031a3.266 3.266 0 0 1-2.578 3.293l2.935 4.117h-2.268l-2.671-3.79h-2.393v3.79h-1.91zm4.706 5.39c1.367 0 2.237-.716 2.237-1.818v-.031c0-1.165-.839-1.802-2.253-1.802h-2.78v3.65zM627.296 120.84v-.032a5.686 5.686 0 0 1 11.371-.031v.031a5.686 5.686 0 0 1-11.371.031zm9.367 0v-.032a3.726 3.726 0 0 0-3.697-3.868 3.674 3.674 0 0 0-3.666 3.837v.031a3.713 3.713 0 0 0 3.697 3.853 3.661 3.661 0 0 0 3.666-3.822zM640.178 124.66l1.15-1.367a5.037 5.037 0 0 0 3.432 1.414c1.18 0 1.927-.559 1.927-1.367v-.03c0-.778-.436-1.197-2.455-1.663-2.315-.56-3.62-1.243-3.62-3.247v-.03c0-1.865 1.554-3.154 3.713-3.154a6.03 6.03 0 0 1 3.946 1.367l-1.026 1.445a4.936 4.936 0 0 0-2.951-1.12c-1.118 0-1.77.576-1.77 1.29v.031c0 .839.497 1.212 2.593 1.709 2.299.56 3.48 1.383 3.48 3.185v.03c0 2.035-1.6 3.247-3.883 3.247a6.698 6.698 0 0 1-4.536-1.74zM650.854 115.372h8.061v1.708h-6.151v2.827h5.452v1.709h-5.452v2.92h6.228v1.709h-8.139zM661.264 115.372h4.845a4.378 4.378 0 0 1 3.138 1.087 3.287 3.287 0 0 1 .901 2.345v.031a3.266 3.266 0 0 1-2.578 3.293l2.936 4.117h-2.269l-2.67-3.79h-2.393v3.79h-1.91zm4.706 5.39c1.367 0 2.237-.716 2.237-1.818v-.031c0-1.165-.839-1.802-2.253-1.802h-2.78v3.65zM671.255 115.372h2.112l3.279 8.356 3.261-8.356h2.066l-4.504 10.95h-1.694zM683.95 115.372h1.91v10.873h-1.91zM688.284 120.84v-.032a5.503 5.503 0 0 1 5.609-5.623 5.668 5.668 0 0 1 4.255 1.693l-1.227 1.414a4.323 4.323 0 0 0-3.044-1.352 3.66 3.66 0 0 0-3.589 3.837v.031a3.664 3.664 0 0 0 3.589 3.853 4.248 4.248 0 0 0 3.122-1.399l1.227 1.242a5.61 5.61 0 0 1-4.412 1.927 5.469 5.469 0 0 1-5.53-5.592zM700.233 115.372h8.062v1.708h-6.151v2.827h5.452v1.709h-5.452v2.92h6.228v1.709h-8.139zM714.575 124.52l1.336-1.242a3.547 3.547 0 0 0 2.859 1.429 1.702 1.702 0 0 0 1.878-1.647v-.031c0-1.071-.978-1.677-2.5-1.677h-.885l-.31-1.196 2.935-3.122h-4.707v-1.662h7.192v1.428l-3.03 3.107c1.647.202 3.201 1.04 3.201 3.045v.03a3.482 3.482 0 0 1-3.806 3.45 5.152 5.152 0 0 1-4.163-1.912z"/></g><g><path class="cls-2" transform="rotate(90 654.388 175.326)" d="M637.44 79.591h33.896v191.47H637.44z"/><path class="cls-3" d="M751.123 193.273h-193.47v-35.895h193.47zm-191.47-2h189.47v-31.895h-189.47z"/></g><g><path class="cls-1" d="M612.35 169.81h4.054c3.417 0 5.779 2.345 5.779 5.406v.031a5.444 5.444 0 0 1-5.779 5.437h-4.053zm1.91 1.74v7.393h2.144a3.543 3.543 0 0 0 3.775-3.665v-.03a3.568 3.568 0 0 0-3.775-3.698zM627.592 169.732h1.771l4.784 10.952h-2.02l-1.102-2.625h-5.141l-1.12 2.625h-1.956zm2.734 6.633l-1.88-4.35-1.864 4.35zM637.288 171.581h-3.448v-1.77h8.823v1.77h-3.448v9.103h-1.927zM647.139 169.732h1.771l4.784 10.952h-2.02l-1.102-2.625h-5.141l-1.12 2.625h-1.956zm2.734 6.633l-1.88-4.35-1.864 4.35zM655.563 169.81h4.876a3.926 3.926 0 0 1 2.843.963 2.435 2.435 0 0 1 .73 1.802v.031a2.589 2.589 0 0 1-1.553 2.423 2.667 2.667 0 0 1 2.16 2.64v.032c0 1.942-1.6 2.983-4.024 2.983h-5.033zm6.539 3.076c0-.855-.684-1.383-1.91-1.383h-2.75v2.89h2.609c1.227 0 2.05-.482 2.05-1.476zm-1.631 3.122h-3.03v2.982h3.17c1.304 0 2.096-.512 2.096-1.491v-.031c0-.916-.73-1.46-2.236-1.46zM670.632 169.732h1.771l4.784 10.952h-2.019l-1.103-2.625h-5.141l-1.12 2.625h-1.956zm2.734 6.633l-1.88-4.35-1.864 4.35zM678.139 179.1l1.15-1.368a5.037 5.037 0 0 0 3.432 1.414c1.18 0 1.926-.56 1.926-1.367v-.03c0-.778-.435-1.197-2.455-1.663-2.314-.56-3.619-1.243-3.619-3.247v-.03c0-1.865 1.554-3.154 3.713-3.154a6.03 6.03 0 0 1 3.945 1.367l-1.025 1.445a4.936 4.936 0 0 0-2.951-1.12c-1.118 0-1.77.576-1.77 1.29v.031c0 .839.496 1.212 2.593 1.709 2.299.56 3.48 1.383 3.48 3.185v.03c0 2.035-1.6 3.247-3.883 3.247a6.698 6.698 0 0 1-4.536-1.74zM688.813 169.81h8.062v1.709h-6.151v2.827h5.452v1.709h-5.452v2.92h6.228v1.709h-8.139z"/></g><g><path class="cls-2" transform="rotate(90 166.243 67.619)" d="M149.295-28.116h33.896v191.47h-33.896z"/><path class="cls-3" d="M262.978 85.566H69.508V49.67h193.47zm-191.47-2h189.47V51.67H71.508z"/></g><g><path class="cls-1" d="M136.207 62.103h2.034l3.309 5.142 3.308-5.142h2.036v10.873h-1.91v-7.798l-3.434 5.126h-.062l-3.402-5.094v7.766h-1.879zM149.212 67.57v-.03a5.686 5.686 0 0 1 11.371-.032v.032a5.686 5.686 0 0 1-11.371.03zm9.367 0v-.03a3.726 3.726 0 0 0-3.697-3.869 3.674 3.674 0 0 0-3.666 3.837v.032a3.713 3.713 0 0 0 3.697 3.852 3.661 3.661 0 0 0 3.666-3.821zM162.901 62.103h4.877a3.926 3.926 0 0 1 2.843.963 2.435 2.435 0 0 1 .73 1.802v.031a2.589 2.589 0 0 1-1.553 2.423 2.667 2.667 0 0 1 2.16 2.64v.032c0 1.941-1.6 2.982-4.024 2.982H162.9zm6.54 3.075c0-.854-.684-1.383-1.91-1.383h-2.75v2.89h2.609c1.227 0 2.05-.481 2.05-1.475zM167.81 68.3h-3.03v2.983h3.17c1.304 0 2.096-.513 2.096-1.491v-.032c0-.916-.73-1.46-2.236-1.46zM174.229 62.103h1.91v10.873h-1.91zM179.045 62.103h1.91v9.133h5.717v1.74h-7.627zM188.663 62.103h8.062v1.708h-6.152v2.827h5.452v1.71h-5.452v2.92h6.229v1.708h-8.139z"/></g><g><path class="cls-2" transform="rotate(90 166.243 120.887)" d="M149.295 25.152h33.896v191.47h-33.896z"/><path class="cls-3" d="M262.978 138.834H69.508V102.94h193.47zm-191.47-2h189.47V104.94H71.508z"/></g><g><path class="cls-1" d="M147.317 115.372h2.066l2.595 8.061 2.67-8.093h1.617l2.672 8.093 2.593-8.061h2.004l-3.774 10.95h-1.662l-2.672-7.813-2.672 7.814h-1.647zM165.497 115.372h8.062v1.708h-6.152v2.827h5.452v1.709h-5.452v2.92h6.229v1.709h-8.139zM175.907 115.372h4.877a3.926 3.926 0 0 1 2.843.963 2.435 2.435 0 0 1 .73 1.801v.032a2.589 2.589 0 0 1-1.553 2.422 2.667 2.667 0 0 1 2.159 2.641v.031c0 1.942-1.6 2.983-4.024 2.983h-5.032zm6.54 3.075c0-.855-.684-1.383-1.91-1.383h-2.75v2.89h2.609c1.227 0 2.05-.482 2.05-1.476zm-1.632 3.122h-3.029v2.982h3.17c1.304 0 2.096-.512 2.096-1.49v-.032c0-.916-.73-1.46-2.237-1.46z"/></g><g><path class="cls-2" transform="rotate(90 166.243 175.326)" d="M149.295 79.591h33.896v191.47h-33.896z"/><path class="cls-3" d="M262.978 193.273H69.508v-35.895h193.47zm-191.47-2h189.47v-31.895H71.508z"/></g><g><path class="cls-1" d="M118.214 169.81h4.054c3.417 0 5.778 2.345 5.778 5.406v.031a5.444 5.444 0 0 1-5.778 5.437h-4.054zm1.91 1.74v7.393h2.144a3.543 3.543 0 0 0 3.774-3.665v-.03a3.568 3.568 0 0 0-3.774-3.698zM130.365 169.81h8.061v1.709h-6.151v2.827h5.452v1.709h-5.452v2.92h6.228v1.709h-8.138zM139.843 169.81h2.113l3.278 8.357 3.262-8.356h2.066l-4.505 10.95h-1.693zM152.43 169.81h8.06v1.709h-6.15v2.827h5.451v1.709h-5.452v2.92h6.229v1.709h-8.139zM162.84 169.81h1.91v9.133h5.717v1.74h-7.627zM171.354 175.278v-.03a5.686 5.686 0 0 1 11.371-.032v.031a5.686 5.686 0 0 1-11.371.031zm9.367 0v-.03a3.726 3.726 0 0 0-3.697-3.87 3.674 3.674 0 0 0-3.666 3.838v.031a3.713 3.713 0 0 0 3.697 3.853 3.661 3.661 0 0 0 3.666-3.822zM185.044 169.81h4.288c2.546 0 4.131 1.445 4.131 3.635v.032c0 2.438-1.957 3.712-4.35 3.712h-2.158v3.495h-1.91zm4.132 5.655c1.445 0 2.345-.809 2.345-1.943v-.03c0-1.274-.916-1.942-2.345-1.942h-2.221v3.915zM195.423 169.81h8.062v1.709h-6.152v2.827h5.453v1.709h-5.453v2.92h6.229v1.709h-8.139zM205.834 169.81h4.846a4.378 4.378 0 0 1 3.138 1.087 3.287 3.287 0 0 1 .901 2.346v.031a3.266 3.266 0 0 1-2.579 3.293l2.937 4.117h-2.269l-2.67-3.79h-2.393v3.79h-1.91zm4.707 5.39c1.367 0 2.237-.715 2.237-1.817v-.031c0-1.165-.839-1.802-2.253-1.802h-2.78v3.65z"/></g><g><path class="cls-2" transform="rotate(90 654.388 223.91)" d="M637.44 128.176h33.896v191.47H637.44z"/><path class="cls-3" d="M751.123 241.858h-193.47v-35.895h193.47zm-191.47-2h189.47v-31.895h-189.47z"/></g><g><path class="cls-1" d="M570.129 227.685l1.15-1.368a5.037 5.037 0 0 0 3.432 1.413c1.18 0 1.927-.558 1.927-1.366v-.031c0-.777-.436-1.196-2.454-1.662-2.316-.56-3.62-1.243-3.62-3.247v-.03c0-1.865 1.553-3.154 3.712-3.154a6.03 6.03 0 0 1 3.946 1.366l-1.026 1.446a4.936 4.936 0 0 0-2.95-1.12c-1.12 0-1.771.576-1.771 1.29v.03c0 .84.497 1.213 2.593 1.71 2.3.56 3.48 1.383 3.48 3.184v.032c0 2.034-1.6 3.246-3.883 3.246a6.698 6.698 0 0 1-4.536-1.74zM583.537 224.981l-4.318-6.585h2.268l3.029 4.8 3.076-4.8h2.19l-4.318 6.539v4.334h-1.927zM590.188 227.685l1.15-1.368a5.037 5.037 0 0 0 3.433 1.413c1.18 0 1.926-.558 1.926-1.366v-.031c0-.777-.435-1.196-2.455-1.662-2.314-.56-3.619-1.243-3.619-3.247v-.03c0-1.865 1.554-3.154 3.713-3.154a6.03 6.03 0 0 1 3.945 1.366l-1.025 1.446a4.936 4.936 0 0 0-2.951-1.12c-1.118 0-1.77.576-1.77 1.29v.03c0 .84.496 1.213 2.593 1.71 2.299.56 3.48 1.383 3.48 3.184v.032c0 2.034-1.6 3.246-3.883 3.246a6.698 6.698 0 0 1-4.537-1.74zM603.302 220.166h-3.448v-1.77h8.823v1.77h-3.448v9.103h-1.927zM610.7 218.396h8.06v1.708h-6.15v2.827h5.452v1.709h-5.453v2.92h6.229v1.709h-8.139zM621.11 218.396h2.035l3.308 5.141 3.309-5.141h2.035v10.873h-1.91v-7.798l-3.434 5.126h-.061l-3.403-5.095v7.767h-1.879zM638.776 223.863v-.03a5.686 5.686 0 0 1 11.371-.032v.031a5.686 5.686 0 0 1-11.37.031zm9.368 0v-.03a3.726 3.726 0 0 0-3.698-3.87 3.674 3.674 0 0 0-3.666 3.838v.031a3.713 3.713 0 0 0 3.698 3.853 3.661 3.661 0 0 0 3.666-3.822zM652.466 218.396h8.093v1.739h-6.183v2.967h5.483v1.74h-5.483v4.427h-1.91zM667.32 218.396h4.846a4.378 4.378 0 0 1 3.138 1.086 3.287 3.287 0 0 1 .901 2.346v.031a3.266 3.266 0 0 1-2.578 3.293l2.935 4.117h-2.268l-2.67-3.79h-2.393v3.79h-1.91zm4.706 5.39c1.368 0 2.238-.716 2.238-1.818v-.031c0-1.165-.84-1.802-2.253-1.802h-2.78v3.65zM678.554 218.396h8.061v1.708h-6.151v2.827h5.452v1.709h-5.452v2.92h6.228v1.709h-8.138zM688.482 223.863v-.03a5.502 5.502 0 0 1 5.609-5.624 5.668 5.668 0 0 1 4.256 1.693l-1.228 1.413a4.323 4.323 0 0 0-3.044-1.351 3.66 3.66 0 0 0-3.589 3.837v.031a3.664 3.664 0 0 0 3.59 3.853 4.246 4.246 0 0 0 3.121-1.399l1.227 1.242a5.61 5.61 0 0 1-4.411 1.927 5.469 5.469 0 0 1-5.53-5.592zM699.639 223.863v-.03a5.686 5.686 0 0 1 11.37-.032v.031a5.686 5.686 0 0 1-11.37.031zm9.367 0v-.03a3.726 3.726 0 0 0-3.697-3.87 3.674 3.674 0 0 0-3.666 3.838v.031a3.713 3.713 0 0 0 3.697 3.853 3.661 3.661 0 0 0 3.666-3.822zM713.328 218.396h4.846a4.378 4.378 0 0 1 3.138 1.086 3.287 3.287 0 0 1 .9 2.346v.031a3.266 3.266 0 0 1-2.577 3.293l2.935 4.117h-2.268l-2.671-3.79h-2.393v3.79h-1.91zm4.706 5.39c1.367 0 2.237-.716 2.237-1.818v-.031c0-1.165-.838-1.802-2.252-1.802h-2.78v3.65zM724.563 218.396h4.053c3.417 0 5.779 2.344 5.779 5.405v.031a5.444 5.444 0 0 1-5.779 5.437h-4.053zm1.91 1.739v7.393h2.143a3.543 3.543 0 0 0 3.775-3.665v-.03a3.568 3.568 0 0 0-3.775-3.698z"/></g><g><path class="cls-3" d="M559.31 177.066c-23.763 0-31.886-7.336-40.486-15.102-9.6-8.669-20.48-18.494-56.919-19.192l.04-2c37.184.712 48.36 10.804 58.22 19.708 8.666 7.827 16.151 14.586 39.146 14.586z"/><path class="cls-3" d="M462.885 138.898l-5.269 2.834 5.089 3.147.18-5.981zM461.943 103.56l-.037-2c36.447-.678 47.328-10.219 56.929-18.636 8.599-7.539 16.72-14.66 40.476-14.66v2c-23.003 0-30.49 6.564-39.158 14.164-9.858 8.643-21.032 18.44-58.21 19.132z"/><path class="cls-3" d="M462.883 105.437l-5.267-2.838 5.091-3.143.176 5.981zM461.988 121.173h97.389v2h-97.389z"/><path class="cls-3" d="M462.864 125.165l-5.181-2.991 5.181-2.992v5.983z"/><g><path class="cls-3" d="M559.321 226.9c-23.95 0-32.075-13.795-40.677-28.399-10.07-17.093-20.48-34.768-56.747-36.074l.073-1.999c37.36 1.346 48.536 20.32 58.396 37.058 8.665 14.71 16.148 27.413 38.955 27.413z"/><path class="cls-3" d="M462.889 158.506l-5.262 2.846 5.096 3.135.166-5.981z"/></g><g><path class="cls-3" d="M461.97 83.918l-.073-1.999c36.266-1.305 46.677-18.98 56.747-36.073 8.602-14.604 16.727-28.398 40.677-28.398v2c-22.807 0-30.29 12.703-38.955 27.412-9.86 16.74-21.036 35.713-58.396 37.058z"/><path class="cls-3" d="M462.889 85.841l-5.262-2.846 5.096-3.135.166 5.981z"/></g></g><g><path class="cls-3" d="M359.464 103.575c-37.185-.713-48.36-10.804-58.22-19.708-8.667-7.826-16.152-14.586-39.146-14.586v-2c23.763 0 31.886 7.336 40.486 15.101 9.6 8.67 20.481 18.495 56.919 19.193z"/><path class="cls-3" d="M358.523 105.449l5.269-2.834-5.088-3.147-.181 5.981zM262.098 176.083v-2c23.003 0 30.489-6.564 39.157-14.164 9.86-8.643 21.033-18.44 58.21-19.132l.037 2c-36.445.678-47.327 10.218-56.928 18.636-8.599 7.539-16.721 14.66-40.476 14.66z"/><path class="cls-3" d="M358.525 138.91l5.267 2.838-5.091 3.143-.176-5.981z"/><g><path class="cls-3" d="M262.031 121.173h97.389v2h-97.389z"/><path class="cls-3" d="M358.544 119.182l5.181 2.992-5.181 2.991v-5.983z"/></g></g><g><path d="M408.309 136.114a21.043 21.043 0 0 0-1.582-5.966l-5.092.097 2.608-4.37a20.918 20.918 0 0 0-4.356-4.357l-4.37 2.608.082-5.092a20.828 20.828 0 0 0-5.952-1.581l-2.47 4.44-2.47-4.44a20.83 20.83 0 0 0-5.951 1.581l.083 5.092-4.37-2.608a20.59 20.59 0 0 0-4.357 4.356l2.608 4.371-5.092-.097a21.04 21.04 0 0 0-1.582 5.966l4.44 2.47-4.44 2.47a20.826 20.826 0 0 0 1.582 5.952l5.092-.084-2.608 4.37a21.256 21.256 0 0 0 4.356 4.358l4.37-2.609-.082 5.092a20.827 20.827 0 0 0 5.952 1.582l2.47-4.44 2.47 4.44a20.825 20.825 0 0 0 5.951-1.582l-.083-5.092 4.37 2.609a21.607 21.607 0 0 0 4.357-4.357l-2.608-4.37 5.092.083a20.83 20.83 0 0 0 1.582-5.953l-4.44-2.47zm-20.896 11.294a8.824 8.824 0 1 1 8.825-8.824 8.832 8.832 0 0 1-8.825 8.824z" fill="#f9a21e"/><path class="cls-1" d="M390.724 119.632a18.833 18.833 0 0 1 2.853.757l-.06 3.705a2 2 0 0 0 3.024 1.75l3.184-1.9a18.873 18.873 0 0 1 2.092 2.093l-1.9 3.183a2 2 0 0 0 1.718 3.025h.038l3.698-.07a19.066 19.066 0 0 1 .758 2.863l-3.232 1.798a2 2 0 0 0 0 3.496l3.232 1.798a18.836 18.836 0 0 1-.757 2.853l-3.704-.06h-.033a2 2 0 0 0-1.717 3.024l1.897 3.18a19.56 19.56 0 0 1-2.095 2.094l-3.179-1.897a2 2 0 0 0-3.025 1.75l.061 3.705a18.823 18.823 0 0 1-2.853.757l-1.799-3.233a2 2 0 0 0-3.495 0l-1.799 3.233a18.825 18.825 0 0 1-2.853-.757l.06-3.705a2 2 0 0 0-3.024-1.75l-3.182 1.899a19.276 19.276 0 0 1-2.092-2.096l1.897-3.18a2 2 0 0 0-1.717-3.025h-.033l-3.704.061a18.83 18.83 0 0 1-.757-2.853l3.232-1.798a2 2 0 0 0 0-3.496l-3.232-1.798a19.069 19.069 0 0 1 .758-2.864l3.698.07.038.001a2 2 0 0 0 1.717-3.025l-1.9-3.184a18.602 18.602 0 0 1 2.09-2.095l3.187 1.903a2 2 0 0 0 3.025-1.75l-.061-3.705a18.827 18.827 0 0 1 2.853-.757l1.799 3.233a2 2 0 0 0 3.495 0l1.799-3.233m-3.31 29.776a10.824 10.824 0 1 0-10.839-10.824 10.837 10.837 0 0 0 10.838 10.824m2.234-31.955l-2.47 4.44-2.47-4.44a20.83 20.83 0 0 0-5.951 1.581l.083 5.092-4.37-2.608a20.59 20.59 0 0 0-4.357 4.356l2.608 4.371-5.092-.097a21.04 21.04 0 0 0-1.582 5.966l4.44 2.47-4.44 2.47a20.827 20.827 0 0 0 1.582 5.952l5.092-.084-2.608 4.37a21.256 21.256 0 0 0 4.356 4.358l4.37-2.609-.082 5.092a20.827 20.827 0 0 0 5.952 1.582l2.47-4.44 2.47 4.44a20.825 20.825 0 0 0 5.951-1.582l-.083-5.092 4.37 2.609a21.607 21.607 0 0 0 4.357-4.357l-2.608-4.37 5.092.083a20.83 20.83 0 0 0 1.582-5.953l-4.44-2.47 4.44-2.47a21.042 21.042 0 0 0-1.582-5.965l-5.092.097 2.608-4.37a20.918 20.918 0 0 0-4.356-4.357l-4.37 2.608.082-5.092a20.828 20.828 0 0 0-5.952-1.581zm-2.234 29.955a8.824 8.824 0 1 1 8.825-8.824 8.832 8.832 0 0 1-8.825 8.824z"/></g><g><path class="cls-1" d="M387.408 134.873a3.71 3.71 0 1 1-3.709 3.71 3.713 3.713 0 0 1 3.71-3.71m0-2a5.71 5.71 0 1 0 5.708 5.71 5.71 5.71 0 0 0-5.709-5.71z"/><path class="cls-1" d="M411.466 161.17a1.002 1.002 0 0 1-.412-.089c-.051-.023-5.174-2.35-11.322-5.934a1 1 0 1 1 1.008-1.728 141.166 141.166 0 0 0 10.71 5.642c11.51-5.768 29.295-16.41 29.295-21.137v-48.05c-4.158.872-17.584 2.726-29.524-6.29-11.943 9.017-25.366 7.163-29.525 6.29v28.841a1 1 0 1 1-2 0V88.607a1 1 0 0 1 1.274-.961c.16.044 16.279 4.443 29.63-6.111a1 1 0 0 1 1.24 0c13.35 10.555 29.472 6.157 29.632 6.11a1 1 0 0 1 1.273.962v49.317c0 1.25 0 5.054-15.615 14.671-7.522 4.633-15.143 8.432-15.219 8.47a1.007 1.007 0 0 1-.445.105z"/><path class="cls-5" d="M387.633 108.83V96.776s12.757 3.473 23.307-4.868v16.837z"/><path class="cls-1" d="M386.634 109.833V95.47l1.262.34c.122.035 12.412 3.23 22.424-4.687l1.62-1.28v19.898zm2-11.814v9.807l21.306-.078V93.877c-8.58 5.791-17.954 4.768-21.306 4.142z"/><g><path class="cls-5" d="M434.807 108.716v24.702c0 5.445-23.52 17-23.96 17.208l.245-41.966z"/><path class="cls-1" d="M409.839 152.21l.259-44.553 25.71.062v25.699c0 6.323-24.287 17.996-24.533 18.112zm2.247-42.548l-.229 39.36c7.497-3.734 21.95-12.123 21.95-15.604v-23.704z"/></g></g></svg>